<svg id="Layer_1" data-name="Layer 1" xmlns="http://www.w3.org/2000/svg" xmlns:xlink="http://www.w3.org/1999/xlink" viewBox="0 0 100 100"><defs><style>.cls-1{fill:url(#linear-gradient);}.cls-2{fill:#01233f;}.cls-3{fill:#fff;}.cls-4{fill:url(#linear-gradient-2);}.cls-5{fill:#f1f2f2;}</style><linearGradient id="linear-gradient" y1="50" x2="100" y2="50" gradientUnits="userSpaceOnUse"><stop offset="0" stop-color="#01233f"/><stop offset="1" stop-color="#003163"/></linearGradient><linearGradient id="linear-gradient-2" x1="5" x2="95" xlink:href="#linear-gradient"/></defs><rect class="cls-1" width="100" height="100"/><path class="cls-2" d="M8.05,48.18A25.41,25.41,0,0,1,5,36c0-10.05,5.68-20,18.15-20H31l1.18,3.87h-.68l-3.68-3.13H23.15c-9,0-13.81,10.12-13.81,20A25.32,25.32,0,0,0,11.84,48,13.32,13.32,0,0,0,23.7,55.41a11.66,11.66,0,0,0,5.5-1.32v-14L18.91,38.92v-.74H36.17L33.06,40.1V56.62h-.71c0-1.4-2.07-1.61-3.13-1.61a14.38,14.38,0,0,1-6.78,1.63A16.48,16.48,0,0,1,8.05,48.18Z"/><path class="cls-2" d="M41,66.55l2.13-1.86V17.8L41,15.93H49.8L47.67,17.8V64.69l.71.41H63.66l3.68-2.44H68l-1.19,3.87Z"/><path class="cls-2" d="M76.89,16v.78c7.64,1.31,13.51,9.52,13.51,19.47S84.53,54.44,76.89,55.75v.78a20.37,20.37,0,0,0,0-40.49ZM54.5,36.29A20.31,20.31,0,0,0,72.6,56.53v-.78C65,54.44,59.1,46.21,59.1,36.29S65,18.13,72.6,16.82V16A20.32,20.32,0,0,0,54.5,36.29Z"/><path class="cls-3" d="M22.58,81.5V75.76h.81l1.84,2.9a19.15,19.15,0,0,1,1,1.87h0c-.07-.77-.08-1.47-.08-2.36v-2.4h.7V81.5h-.75l-1.82-2.91a18.8,18.8,0,0,1-1.08-1.92h0c0,.72.06,1.41.06,2.37V81.5Z"/><path class="cls-3" d="M32.51,79.69l-.6,1.81h-.76l1.94-5.74H34l1.95,5.74h-.79l-.61-1.81Zm1.88-.58-.56-1.65a10.56,10.56,0,0,1-.3-1h0c-.08.34-.18.69-.29,1l-.56,1.65Z"/><path class="cls-3" d="M40.93,75.76V81.5h-.74V75.76Z"/><path class="cls-3" d="M45.62,75.76h.74v5.11h2.45v.63H45.62Z"/><path class="cls-3" d="M58.14,80.59a2.6,2.6,0,0,0,1.33.38c.76,0,1.2-.4,1.2-1s-.31-.84-1.08-1.14c-.94-.33-1.51-.82-1.51-1.62a1.65,1.65,0,0,1,1.85-1.56A2.68,2.68,0,0,1,61.2,76l-.21.6a2.29,2.29,0,0,0-1.09-.27c-.78,0-1.08.47-1.08.86,0,.54.35.8,1.14,1.11,1,.37,1.47.84,1.47,1.68s-.66,1.65-2,1.65A3,3,0,0,1,58,81.22Z"/><path class="cls-3" d="M65.84,75.83a8.61,8.61,0,0,1,1.42-.11,2.34,2.34,0,0,1,1.61.48,1.55,1.55,0,0,1,.5,1.2,1.69,1.69,0,0,1-.44,1.22,2.36,2.36,0,0,1-1.75.63,2.74,2.74,0,0,1-.6,0v2.3h-.74Zm.74,2.77a2.68,2.68,0,0,0,.61.05c.9,0,1.44-.43,1.44-1.22s-.53-1.12-1.35-1.12a2.83,2.83,0,0,0-.7.06Z"/><path class="cls-3" d="M74,79.69l-.59,1.81h-.77l1.95-5.74h.89l2,5.74h-.79L76,79.69Zm1.88-.58-.56-1.65c-.13-.37-.21-.71-.3-1h0c-.09.34-.18.69-.29,1l-.56,1.65Z"/><path class="cls-2" d="M22.58,81.5V75.76h.81l1.84,2.9a19.15,19.15,0,0,1,1,1.87h0c-.07-.77-.08-1.47-.08-2.36v-2.4h.7V81.5h-.75l-1.82-2.91a18.8,18.8,0,0,1-1.08-1.92h0c0,.72.06,1.41.06,2.37V81.5Z"/><path class="cls-2" d="M32.51,79.69l-.6,1.81h-.76l1.94-5.74H34l1.95,5.74h-.79l-.61-1.81Zm1.88-.58-.56-1.65a10.56,10.56,0,0,1-.3-1h0c-.08.34-.18.69-.29,1l-.56,1.65Z"/><path class="cls-2" d="M40.93,75.76V81.5h-.74V75.76Z"/><path class="cls-2" d="M45.62,75.76h.74v5.11h2.45v.63H45.62Z"/><path class="cls-2" d="M58.14,80.59a2.6,2.6,0,0,0,1.33.38c.76,0,1.2-.4,1.2-1s-.31-.84-1.08-1.14c-.94-.33-1.51-.82-1.51-1.62a1.65,1.65,0,0,1,1.85-1.56A2.68,2.68,0,0,1,61.2,76l-.21.6a2.29,2.29,0,0,0-1.09-.27c-.78,0-1.08.47-1.08.86,0,.54.35.8,1.14,1.11,1,.37,1.47.84,1.47,1.68s-.66,1.65-2,1.65A3,3,0,0,1,58,81.22Z"/><path class="cls-2" d="M65.84,75.83a8.61,8.61,0,0,1,1.42-.11,2.34,2.34,0,0,1,1.61.48,1.55,1.55,0,0,1,.5,1.2,1.69,1.69,0,0,1-.44,1.22,2.36,2.36,0,0,1-1.75.63,2.74,2.74,0,0,1-.6,0v2.3h-.74Zm.74,2.77a2.68,2.68,0,0,0,.61.05c.9,0,1.44-.43,1.44-1.22s-.53-1.12-1.35-1.12a2.83,2.83,0,0,0-.7.06Z"/><path class="cls-2" d="M74,79.69l-.59,1.81h-.77l1.95-5.74h.89l2,5.74h-.79L76,79.69Zm1.88-.58-.56-1.65c-.13-.37-.21-.71-.3-1h0c-.09.34-.18.69-.29,1l-.56,1.65Z"/><rect class="cls-2" x="11.47" y="84" width="77.06" height="0.08"/><rect class="cls-2" x="11.47" y="73.18" width="77.06" height="0.07"/><path class="cls-4" d="M8.05,48.18A25.41,25.41,0,0,1,5,36c0-10.05,5.68-20,18.15-20H31l1.18,3.87h-.68l-3.68-3.13H23.15c-9,0-13.81,10.12-13.81,20A25.32,25.32,0,0,0,11.84,48,13.32,13.32,0,0,0,23.7,55.41a11.66,11.66,0,0,0,5.5-1.32v-14L18.91,38.92v-.74H36.17L33.06,40.1V56.62h-.71c0-1.4-2.07-1.61-3.13-1.61a14.38,14.38,0,0,1-6.78,1.63A16.48,16.48,0,0,1,8.05,48.18Z"/><path class="cls-4" d="M41,66.55l2.13-1.86V17.8L41,15.93H49.8L47.67,17.8V64.69l.71.41H63.66l3.68-2.44H68l-1.19,3.87Z"/><path class="cls-4" d="M76.89,16v.78c7.64,1.31,13.51,9.52,13.51,19.47S84.53,54.44,76.89,55.75v.78a20.37,20.37,0,0,0,0-40.49ZM54.5,36.29A20.31,20.31,0,0,0,72.6,56.53v-.78C65,54.44,59.1,46.21,59.1,36.29S65,18.13,72.6,16.82V16A20.32,20.32,0,0,0,54.5,36.29Z"/><path class="cls-4" d="M22.58,81.5V75.76h.81l1.84,2.9a19.15,19.15,0,0,1,1,1.87h0c-.07-.77-.08-1.47-.08-2.36v-2.4h.7V81.5h-.75l-1.82-2.91a18.8,18.8,0,0,1-1.08-1.92h0c0,.72.06,1.41.06,2.37V81.5Z"/><path class="cls-4" d="M32.51,79.69l-.6,1.81h-.76l1.94-5.74H34l1.95,5.74h-.79l-.61-1.81Zm1.88-.58-.56-1.65a10.56,10.56,0,0,1-.3-1h0c-.08.34-.18.69-.29,1l-.56,1.65Z"/><path class="cls-4" d="M40.93,75.76V81.5h-.74V75.76Z"/><path class="cls-4" d="M45.62,75.76h.74v5.11h2.45v.63H45.62Z"/><path class="cls-4" d="M58.14,80.59a2.6,2.6,0,0,0,1.33.38c.76,0,1.2-.4,1.2-1s-.31-.84-1.08-1.14c-.94-.33-1.51-.82-1.51-1.62a1.65,1.65,0,0,1,1.85-1.56A2.68,2.68,0,0,1,61.2,76l-.21.6a2.29,2.29,0,0,0-1.09-.27c-.78,0-1.08.47-1.08.86,0,.54.35.8,1.14,1.11,1,.37,1.47.84,1.47,1.68s-.66,1.65-2,1.65A3,3,0,0,1,58,81.22Z"/><path class="cls-4" d="M65.84,75.83a8.61,8.61,0,0,1,1.42-.11,2.34,2.34,0,0,1,1.61.48,1.55,1.55,0,0,1,.5,1.2,1.69,1.69,0,0,1-.44,1.22,2.36,2.36,0,0,1-1.75.63,2.74,2.74,0,0,1-.6,0v2.3h-.74Zm.74,2.77a2.68,2.68,0,0,0,.61.05c.9,0,1.44-.43,1.44-1.22s-.53-1.12-1.35-1.12a2.83,2.83,0,0,0-.7.06Z"/><path class="cls-4" d="M74,79.69l-.59,1.81h-.77l1.95-5.74h.89l2,5.74h-.79L76,79.69Zm1.88-.58-.56-1.65c-.13-.37-.21-.71-.3-1h0c-.09.34-.18.69-.29,1l-.56,1.65Z"/><path class="cls-4" d="M22.58,81.5V75.76h.81l1.84,2.9a19.15,19.15,0,0,1,1,1.87h0c-.07-.77-.08-1.47-.08-2.36v-2.4h.7V81.5h-.75l-1.82-2.91a18.8,18.8,0,0,1-1.08-1.92h0c0,.72.06,1.41.06,2.37V81.5Z"/><path class="cls-4" d="M32.51,79.69l-.6,1.81h-.76l1.94-5.74H34l1.95,5.74h-.79l-.61-1.81Zm1.88-.58-.56-1.65a10.56,10.56,0,0,1-.3-1h0c-.08.34-.18.69-.29,1l-.56,1.65Z"/><path class="cls-4" d="M40.93,75.76V81.5h-.74V75.76Z"/><path class="cls-4" d="M45.62,75.76h.74v5.11h2.45v.63H45.62Z"/><path class="cls-4" d="M58.14,80.59a2.6,2.6,0,0,0,1.33.38c.76,0,1.2-.4,1.2-1s-.31-.84-1.08-1.14c-.94-.33-1.51-.82-1.51-1.62a1.65,1.65,0,0,1,1.85-1.56A2.68,2.68,0,0,1,61.2,76l-.21.6a2.29,2.29,0,0,0-1.09-.27c-.78,0-1.08.47-1.08.86,0,.54.35.8,1.14,1.11,1,.37,1.47.84,1.47,1.68s-.66,1.65-2,1.65A3,3,0,0,1,58,81.22Z"/><path class="cls-4" d="M65.84,75.83a8.61,8.61,0,0,1,1.42-.11,2.34,2.34,0,0,1,1.61.48,1.55,1.55,0,0,1,.5,1.2,1.69,1.69,0,0,1-.44,1.22,2.36,2.36,0,0,1-1.75.63,2.74,2.74,0,0,1-.6,0v2.3h-.74Zm.74,2.77a2.68,2.68,0,0,0,.61.05c.9,0,1.44-.43,1.44-1.22s-.53-1.12-1.35-1.12a2.83,2.83,0,0,0-.7.06Z"/><path class="cls-4" d="M74,79.69l-.59,1.81h-.77l1.95-5.74h.89l2,5.74h-.79L76,79.69Zm1.88-.58-.56-1.65c-.13-.37-.21-.71-.3-1h0c-.09.34-.18.69-.29,1l-.56,1.65Z"/><path class="cls-4" d="M22.58,81.5V75.76h.81l1.84,2.9a19.15,19.15,0,0,1,1,1.87h0c-.07-.77-.08-1.47-.08-2.36v-2.4h.7V81.5h-.75l-1.82-2.91a18.8,18.8,0,0,1-1.08-1.92h0c0,.72.06,1.41.06,2.37V81.5Z"/><path class="cls-4" d="M32.51,79.69l-.6,1.81h-.76l1.94-5.74H34l1.95,5.74h-.79l-.61-1.81Zm1.88-.58-.56-1.65a10.56,10.56,0,0,1-.3-1h0c-.08.34-.18.69-.29,1l-.56,1.65Z"/><path class="cls-4" d="M40.93,75.76V81.5h-.74V75.76Z"/><path class="cls-4" d="M45.62,75.76h.74v5.11h2.45v.63H45.62Z"/><path class="cls-4" d="M58.14,80.59a2.6,2.6,0,0,0,1.33.38c.76,0,1.2-.4,1.2-1s-.31-.84-1.08-1.14c-.94-.33-1.51-.82-1.51-1.62a1.65,1.65,0,0,1,1.85-1.56A2.68,2.68,0,0,1,61.2,76l-.21.6a2.29,2.29,0,0,0-1.09-.27c-.78,0-1.08.47-1.08.86,0,.54.35.8,1.14,1.11,1,.37,1.47.84,1.47,1.68s-.66,1.65-2,1.65A3,3,0,0,1,58,81.22Z"/><path class="cls-4" d="M65.84,75.83a8.61,8.61,0,0,1,1.42-.11,2.34,2.34,0,0,1,1.61.48,1.55,1.55,0,0,1,.5,1.2,1.69,1.69,0,0,1-.44,1.22,2.36,2.36,0,0,1-1.75.63,2.74,2.74,0,0,1-.6,0v2.3h-.74Zm.74,2.77a2.68,2.68,0,0,0,.61.05c.9,0,1.44-.43,1.44-1.22s-.53-1.12-1.35-1.12a2.83,2.83,0,0,0-.7.06Z"/><path class="cls-4" d="M74,79.69l-.59,1.81h-.77l1.95-5.74h.89l2,5.74h-.79L76,79.69Zm1.88-.58-.56-1.65c-.13-.37-.21-.71-.3-1h0c-.09.34-.18.69-.29,1l-.56,1.65Z"/><rect class="cls-4" x="11.47" y="84" width="77.06" height="0.08"/><rect class="cls-4" x="11.47" y="73.18" width="77.06" height="0.07"/><path class="cls-5" d="M8.05,48.18A25.41,25.41,0,0,1,5,36c0-10.05,5.68-20,18.15-20H31l1.18,3.87h-.68l-3.68-3.13H23.15c-9,0-13.81,10.12-13.81,20A25.32,25.32,0,0,0,11.84,48,13.32,13.32,0,0,0,23.7,55.41a11.66,11.66,0,0,0,5.5-1.32v-14L18.91,38.92v-.74H36.17L33.06,40.1V56.62h-.71c0-1.4-2.07-1.61-3.13-1.61a14.38,14.38,0,0,1-6.78,1.63A16.48,16.48,0,0,1,8.05,48.18Z"/><path class="cls-5" d="M41,66.55l2.13-1.86V17.8L41,15.93H49.8L47.67,17.8V64.69l.71.41H63.66l3.68-2.44H68l-1.19,3.87Z"/><path class="cls-5" d="M76.89,16v.78c7.64,1.31,13.51,9.52,13.51,19.47S84.53,54.44,76.89,55.75v.78a20.37,20.37,0,0,0,0-40.49ZM54.5,36.29A20.31,20.31,0,0,0,72.6,56.53v-.78C65,54.44,59.1,46.21,59.1,36.29S65,18.13,72.6,16.82V16A20.32,20.32,0,0,0,54.5,36.29Z"/><path class="cls-5" d="M22.58,81.5V75.76h.81l1.84,2.9a19.15,19.15,0,0,1,1,1.87h0c-.07-.77-.08-1.47-.08-2.36v-2.4h.7V81.5h-.75l-1.82-2.91a18.8,18.8,0,0,1-1.08-1.92h0c0,.72.06,1.41.06,2.37V81.5Z"/><path class="cls-5" d="M32.51,79.69l-.6,1.81h-.76l1.94-5.74H34l1.95,5.74h-.79l-.61-1.81Zm1.88-.58-.56-1.65a10.56,10.56,0,0,1-.3-1h0c-.08.34-.18.69-.29,1l-.56,1.65Z"/><path class="cls-5" d="M40.93,75.76V81.5h-.74V75.76Z"/><path class="cls-5" d="M45.62,75.76h.74v5.11h2.45v.63H45.62Z"/><path class="cls-5" d="M58.14,80.59a2.6,2.6,0,0,0,1.33.38c.76,0,1.2-.4,1.2-1s-.31-.84-1.08-1.14c-.94-.33-1.51-.82-1.51-1.62a1.65,1.65,0,0,1,1.85-1.56A2.68,2.68,0,0,1,61.2,76l-.21.6a2.29,2.29,0,0,0-1.09-.27c-.78,0-1.08.47-1.08.86,0,.54.35.8,1.14,1.11,1,.37,1.47.84,1.47,1.68s-.66,1.65-2,1.65A3,3,0,0,1,58,81.22Z"/><path class="cls-5" d="M65.84,75.83a8.61,8.61,0,0,1,1.42-.11,2.34,2.34,0,0,1,1.61.48,1.55,1.55,0,0,1,.5,1.2,1.69,1.69,0,0,1-.44,1.22,2.36,2.36,0,0,1-1.75.63,2.74,2.74,0,0,1-.6,0v2.3h-.74Zm.74,2.77a2.68,2.68,0,0,0,.61.05c.9,0,1.44-.43,1.44-1.22s-.53-1.12-1.35-1.12a2.83,2.83,0,0,0-.7.06Z"/><path class="cls-5" d="M74,79.69l-.59,1.81h-.77l1.95-5.74h.89l2,5.74h-.79L76,79.69Zm1.88-.58-.56-1.65c-.13-.37-.21-.71-.3-1h0c-.09.34-.18.69-.29,1l-.56,1.65Z"/><path class="cls-5" d="M22.58,81.5V75.76h.81l1.84,2.9a19.15,19.15,0,0,1,1,1.87h0c-.07-.77-.08-1.47-.08-2.36v-2.4h.7V81.5h-.75l-1.82-2.91a18.8,18.8,0,0,1-1.08-1.92h0c0,.72.06,1.41.06,2.37V81.5Z"/><path class="cls-5" d="M32.51,79.69l-.6,1.81h-.76l1.94-5.74H34l1.95,5.74h-.79l-.61-1.81Zm1.88-.58-.56-1.65a10.56,10.56,0,0,1-.3-1h0c-.08.34-.18.69-.29,1l-.56,1.65Z"/><path class="cls-5" d="M40.93,75.76V81.5h-.74V75.76Z"/><path class="cls-5" d="M45.62,75.76h.74v5.11h2.45v.63H45.62Z"/><path class="cls-5" d="M58.14,80.59a2.6,2.6,0,0,0,1.33.38c.76,0,1.2-.4,1.2-1s-.31-.84-1.08-1.14c-.94-.33-1.51-.82-1.51-1.62a1.65,1.65,0,0,1,1.85-1.56A2.68,2.68,0,0,1,61.2,76l-.21.6a2.29,2.29,0,0,0-1.09-.27c-.78,0-1.08.47-1.08.86,0,.54.35.8,1.14,1.11,1,.37,1.47.84,1.47,1.68s-.66,1.65-2,1.65A3,3,0,0,1,58,81.22Z"/><path class="cls-5" d="M65.84,75.83a8.61,8.61,0,0,1,1.42-.11,2.34,2.34,0,0,1,1.61.48,1.55,1.55,0,0,1,.5,1.2,1.69,1.69,0,0,1-.44,1.22,2.36,2.36,0,0,1-1.75.63,2.74,2.74,0,0,1-.6,0v2.3h-.74Zm.74,2.77a2.68,2.68,0,0,0,.61.05c.9,0,1.44-.43,1.44-1.22s-.53-1.12-1.35-1.12a2.83,2.83,0,0,0-.7.06Z"/><path class="cls-5" d="M74,79.69l-.59,1.81h-.77l1.95-5.74h.89l2,5.74h-.79L76,79.69Zm1.88-.58-.56-1.65c-.13-.37-.21-.71-.3-1h0c-.09.34-.18.69-.29,1l-.56,1.65Z"/><path class="cls-5" d="M22.58,81.5V75.76h.81l1.84,2.9a19.15,19.15,0,0,1,1,1.87h0c-.07-.77-.08-1.47-.08-2.36v-2.4h.7V81.5h-.75l-1.82-2.91a18.8,18.8,0,0,1-1.08-1.92h0c0,.72.06,1.41.06,2.37V81.5Z"/><path class="cls-5" d="M32.51,79.69l-.6,1.81h-.76l1.94-5.74H34l1.95,5.74h-.79l-.61-1.81Zm1.88-.58-.56-1.65a10.56,10.56,0,0,1-.3-1h0c-.08.34-.18.69-.29,1l-.56,1.65Z"/><path class="cls-5" d="M40.93,75.76V81.5h-.74V75.76Z"/><path class="cls-5" d="M45.62,75.76h.74v5.11h2.45v.63H45.62Z"/><path class="cls-5" d="M58.14,80.59a2.6,2.6,0,0,0,1.33.38c.76,0,1.2-.4,1.2-1s-.31-.84-1.08-1.14c-.94-.33-1.51-.82-1.51-1.62a1.65,1.65,0,0,1,1.85-1.56A2.68,2.68,0,0,1,61.2,76l-.21.6a2.29,2.29,0,0,0-1.09-.27c-.78,0-1.08.47-1.08.86,0,.54.35.8,1.14,1.11,1,.37,1.47.84,1.47,1.68s-.66,1.65-2,1.65A3,3,0,0,1,58,81.22Z"/><path class="cls-5" d="M65.84,75.83a8.61,8.61,0,0,1,1.42-.11,2.34,2.34,0,0,1,1.61.48,1.55,1.55,0,0,1,.5,1.2,1.69,1.69,0,0,1-.44,1.22,2.36,2.36,0,0,1-1.75.63,2.74,2.74,0,0,1-.6,0v2.3h-.74Zm.74,2.77a2.68,2.68,0,0,0,.61.05c.9,0,1.44-.43,1.44-1.22s-.53-1.12-1.35-1.12a2.83,2.83,0,0,0-.7.06Z"/><path class="cls-5" d="M74,79.69l-.59,1.81h-.77l1.95-5.74h.89l2,5.74h-.79L76,79.69Zm1.88-.58-.56-1.65c-.13-.37-.21-.71-.3-1h0c-.09.34-.18.69-.29,1l-.56,1.65Z"/><rect class="cls-5" x="11.47" y="84" width="77.06" height="0.08"/><rect class="cls-5" x="11.47" y="73.18" width="77.06" height="0.07"/></svg>